Jumper_states
version=1
nRows=4
nColumns=171
inDegrees=yes

# SIMM Motion File Header:
name Jumper_states
datacolumns 171
datarows 4
otherdata 1
range 0.00000000 0.00061922
endheader
time	pelvis_tilt	pelvis_list	pelvis_rotation	pelvis_tx	pelvis_ty	pelvis_tz	hip_flexion_r	hip_adduction_r	hip_rotation_r	knee_angle_r	tib_tx_r	tib_ty_r	pat_angle_r	pat_tx_r	pat_ty_r	ankle_angle_r	subtalar_angle_r	mtp_angle_r	hip_flexion_l	hip_adduction_l	hip_rotation_l	knee_angle_l	pat_angle_l	pat_tx_l	pat_ty_l	ankle_angle_l	subtalar_angle_l	mtp_angle_l	lumbar_extension	lumbar_bending	lumbar_rotation	pelvis_tilt_u	pelvis_list_u	pelvis_rotation_u	pelvis_tx_u	pelvis_ty_u	pelvis_tz_u	hip_flexion_r_u	hip_adduction_r_u	hip_rotation_r_u	knee_angle_r_u	tib_tx_r_u	tib_ty_r_u	pat_angle_r_u	pat_tx_r_u	pat_ty_r_u	ankle_angle_r_u	subtalar_angle_r_u	mtp_angle_r_u	hip_flexion_l_u	hip_adduction_l_u	hip_rotation_l_u	knee_angle_l_u	pat_angle_l_u	pat_tx_l_u	pat_ty_l_u	ankle_angle_l_u	subtalar_angle_l_u	mtp_angle_l_u	lumbar_extension_u	lumbar_bending_u	lumbar_rotation_u	glut_med1_r.activation	glut_med1_r.fiber_length	glut_med2_r.activation	glut_med2_r.fiber_length	glut_med3_r.activation	glut_med3_r.fiber_length	bifemlh_r.activation	bifemlh_r.fiber_length	bifemsh_r.activation	bifemsh_r.fiber_length	sar_r.activation	sar_r.fiber_length	add_mag2_r.activation	add_mag2_r.fiber_length	tfl_r.activation	tfl_r.fiber_length	pect_r.activation	pect_r.fiber_length	grac_r.activation	grac_r.fiber_length	glut_max1_r.activation	glut_max1_r.fiber_length	glut_max2_r.activation	glut_max2_r.fiber_length	glut_max3_r.activation	glut_max3_r.fiber_length	iliacus_r.activation	iliacus_r.fiber_length	psoas_r.activation	psoas_r.fiber_length	quad_fem_r.activation	quad_fem_r.fiber_length	gem_r.activation	gem_r.fiber_length	peri_r.activation	peri_r.fiber_length	rect_fem_r.activation	rect_fem_r.fiber_length	vas_int_r.activation	vas_int_r.fiber_length	med_gas_r.activation	med_gas_r.fiber_length	soleus_r.activation	soleus_r.fiber_length	tib_post_r.activation	tib_post_r.fiber_length	tib_ant_r.activation	tib_ant_r.fiber_length	glut_med1_l.activation	glut_med1_l.fiber_length	glut_med2_l.activation	glut_med2_l.fiber_length	glut_med3_l.activation	glut_med3_l.fiber_length	bifemlh_l.activation	bifemlh_l.fiber_length	bifemsh_l.activation	bifemsh_l.fiber_length	sar_l.activation	sar_l.fiber_length	add_mag2_l.activation	add_mag2_l.fiber_length	tfl_l.activation	tfl_l.fiber_length	pect_l.activation	pect_l.fiber_length	grac_l.activation	grac_l.fiber_length	glut_max1_l.activation	glut_max1_l.fiber_length	glut_max2_l.activation	glut_max2_l.fiber_length	glut_max3_l.activation	glut_max3_l.fiber_length	iliacus_l.activation	iliacus_l.fiber_length	psoas_l.activation	psoas_l.fiber_length	quad_fem_l.activation	quad_fem_l.fiber_length	gem_l.activation	gem_l.fiber_length	peri_l.activation	peri_l.fiber_length	rect_fem_l.activation	rect_fem_l.fiber_length	vas_int_l.activation	vas_int_l.fiber_length	med_gas_l.activation	med_gas_l.fiber_length	soleus_l.activation	soleus_l.fiber_length	tib_post_l.activation	tib_post_l.fiber_length	tib_ant_l.activation	tib_ant_l.fiber_length	ercspn_r.activation	ercspn_r.fiber_length	ercspn_l.activation	ercspn_l.fiber_length	intobl_r.activation	intobl_r.fiber_length	intobl_l.activation	intobl_l.fiber_length	extobl_r.activation	extobl_r.fiber_length	extobl_l.activation	extobl_l.fiber_length
      0.00000000	    -24.93481121	     -0.02981552	     -0.01929584	     -0.00092501	      0.70916475	     -0.00044338	     75.99999991	     -6.00000028	      3.00000014	    -80.00006665	      0.00410999	     -0.41105527	     17.54581020	      0.03239992	     -0.02000000	     31.49999998	     14.24999998	      0.00000000	     76.00000049	     -6.00000028	      3.00000014	    -80.00006415	     17.54581020	      0.03239992	     -0.02000000	     31.49999998	     14.24999998	      0.00000000	    -10.00000028	      0.00000000	      0.00000000	     -0.00000000	     -0.00000000	     -0.00000000	      0.00000000	     -0.00000000	     -0.00000000	      0.00000000	     -0.00000000	      0.00000000	     -0.00000000	     -0.00000000	     -0.00000000	      0.00000000	     -0.00000000	     -0.00000000	      0.00000000	      0.00000000	      0.00000000	      0.00000000	     -0.00000000	      0.00000000	     -0.00000000	      0.00000000	     -0.00000000	     -0.00000000	      0.00000000	      0.00000000	      0.00000000	      0.00000000	      0.00000000	      0.00000000	      0.02000000	      0.04360995	      0.02000000	      0.09315260	      0.02000000	      0.08274913	      0.24196421	      0.12499594	      0.11187814	      0.13197468	      0.94633289	      0.35202500	      0.13123265	      0.13073823	      0.02000000	      0.03584647	      0.95441820	      0.05453005	      0.02000000	      0.31457193	      0.02000000	      0.11439641	      0.10000000	      0.13438720	      1.00000000	      0.17255328	      0.02000000	      0.05222575	      0.41024390	      0.04651897	      1.00000000	      0.07399598	      0.73544608	      0.02883713	      0.02000000	      0.03028582	      1.00000000	      0.08555704	      0.08701514	      0.12182469	      0.14523874	      0.08463450	      0.03612258	      0.09569812	      0.02000000	      0.03464104	      0.10258295	      0.05284820	      0.02000000	      0.04366823	      0.02000000	      0.09325123	      0.02000000	      0.08283885	      0.25712370	      0.12464807	      0.10233967	      0.13201132	      0.97288010	      0.35161186	      0.10683502	      0.13077915	      0.02000000	      0.03573846	      0.98143604	      0.05475206	      0.02000000	      0.31434366	      0.02000000	      0.11430981	      0.10000000	      0.13420477	      1.00000000	      0.17245229	      0.02000000	      0.05231743	      0.42691310	      0.04669815	      1.00000000	      0.07417670	      0.77305599	      0.02907837	      0.02000000	      0.03041088	      1.00000000	      0.08529659	      0.08853756	      0.12181642	      0.13154573	      0.08478004	      0.03694766	      0.09568778	      0.02000000	      0.03464104	      0.09072816	      0.05297461	      0.29905538	      0.12664581	      0.29845037	      0.12664617	      0.02000000	      0.08961433	      0.02000000	      0.08961433	      0.02000000	      0.12161901	      0.02000000	      0.12161901
      0.00012280	    -24.93480930	     -0.02981571	     -0.01929604	     -0.00092501	      0.70916471	     -0.00044338	     76.00001780	     -5.99999982	      3.00000216	    -80.00012670	      0.00410998	     -0.41105529	     17.54581026	      0.03239990	     -0.02000000	     31.49999067	     14.24999998	     -0.00000000	     76.00001854	     -6.00000045	      3.00000234	    -80.00012457	     17.54581026	      0.03239990	     -0.02000000	     31.49999097	     14.24999998	     -0.00000000	     -9.99999935	      0.00000018	      0.00000024	      0.02613191	     -0.00306448	     -0.00316384	      0.00013024	     -0.00059569	      0.00000631	      0.29653646	      0.00804064	      0.03358102	     -0.96394131	     -0.00005402	     -0.00028028	      0.00093820	     -0.00029867	     -0.00000436	     -0.10703478	      0.00000000	     -0.00000000	      0.29918844	     -0.00214647	      0.03668508	     -0.96994528	      0.00094405	     -0.00030053	     -0.00000438	     -0.10250547	      0.00000000	     -0.00000000	      0.02080877	      0.00294093	      0.00384420	      0.03122795	      0.04360972	      0.03654588	      0.09316203	      0.04177881	      0.08275537	      0.25257718	      0.12500086	      0.11716179	      0.13197439	      0.94556403	      0.35202513	      0.14616901	      0.13073847	      0.03542334	      0.03584314	      0.95470702	      0.05453004	      0.03931822	      0.31457066	      0.04177881	      0.11439349	      0.11652973	      0.13436461	      1.00000000	      0.17255359	      0.02478009	      0.05222464	      0.40924440	      0.04652096	      1.00000000	      0.07399609	      0.73719905	      0.02883776	      0.04177881	      0.03028866	      0.99971441	      0.08555703	      0.10427192	      0.12182600	      0.14507397	      0.08463264	      0.04247885	      0.09570143	      0.04177881	      0.03464440	      0.10274360	      0.05284653	      0.03122795	      0.04366801	      0.03654588	      0.09326066	      0.04177881	      0.08284508	      0.26726559	      0.12465339	      0.10791191	      0.13201101	      0.97193624	      0.35161187	      0.12299806	      0.13077942	      0.03542334	      0.03573512	      0.98155126	      0.05475199	      0.03931822	      0.31434233	      0.04177881	      0.11430688	      0.11652973	      0.13418212	      1.00000000	      0.17245259	      0.02478009	      0.05231632	      0.42583305	      0.04670013	      1.00000000	      0.07417681	      0.77447281	      0.02907891	      0.04177881	      0.03041371	      0.99971441	      0.08529658	      0.10570695	      0.12181773	      0.13141493	      0.08477847	      0.04327241	      0.09569104	      0.04177881	      0.03464440	      0.09111977	      0.05297303	      0.30800772	      0.12664611	      0.30741879	      0.12664647	      0.02348337	      0.08961613	      0.02348337	      0.08961613	      0.02432282	      0.12164082	      0.02432282	      0.12164082
      0.00024559	    -24.93480498	     -0.02981627	     -0.01929662	     -0.00092498	      0.70916460	     -0.00044338	     76.00007281	     -5.99999810	      3.00000892	    -80.00030024	      0.00410997	     -0.41105534	     17.54581043	      0.03239985	     -0.02000000	     31.49998274	     14.24999998	     -0.00000000	     76.00007403	     -6.00000058	      3.00000970	    -80.00029922	     17.54581043	      0.03239985	     -0.02000000	     31.49998381	     14.24999998	     -0.00000000	     -9.99999502	      0.00000072	      0.00000094	      0.04340834	     -0.00598364	     -0.00629460	      0.00024528	     -0.00119664	      0.00001222	      0.59987898	      0.02068007	      0.07815871	     -1.85104742	     -0.00010373	     -0.00053822	      0.00180163	     -0.00057354	     -0.00000836	      0.00918538	      0.00000000	     -0.00000000	      0.60510036	      0.00095418	      0.08469704	     -1.86318039	      0.00181344	     -0.00057730	     -0.00000842	      0.01717437	      0.00000000	     -0.00000000	      0.05057485	      0.00576286	      0.00762894	      0.04188176	      0.04360787	      0.05204275	      0.09316034	      0.06192732	      0.08275289	      0.26285790	      0.12500458	      0.12229067	      0.13197337	      0.94480014	      0.35202530	      0.16041221	      0.13073769	      0.04990794	      0.03583547	      0.95499395	      0.05453002	      0.05729301	      0.31455349	      0.06192732	      0.11438318	      0.13219046	      0.13433931	      1.00000000	      0.17255389	      0.02939128	      0.05222193	      0.40824965	      0.04652295	      1.00000000	      0.07399620	      0.73893584	      0.02883838	      0.06192732	      0.03028784	      0.99943062	      0.08555704	      0.12057121	      0.12182603	      0.14490961	      0.08463080	      0.04859575	      0.09570254	      0.06192732	      0.03464344	      0.10290121	      0.05284486	      0.04188176	      0.04366616	      0.05204275	      0.09325897	      0.06192732	      0.08284259	      0.27710510	      0.12465750	      0.11331410	      0.13200988	      0.97099871	      0.35161194	      0.13833473	      0.13077838	      0.04990794	      0.03572745	      0.98166576	      0.05475192	      0.05729301	      0.31432510	      0.06192732	      0.11429656	      0.13219046	      0.13415677	      1.00000000	      0.17245290	      0.02939128	      0.05231361	      0.42475831	      0.04670212	      1.00000000	      0.07417692	      0.77587742	      0.02907943	      0.06192732	      0.03041290	      0.99943062	      0.08529658	      0.12192977	      0.12181778	      0.13128446	      0.08477691	      0.04935998	      0.09569216	      0.06192732	      0.03464344	      0.09150354	      0.05297142	      0.31672556	      0.12664614	      0.31615186	      0.12664649	      0.02685603	      0.08961664	      0.02685603	      0.08961664	      0.02849045	      0.12164377	      0.02849045	      0.12164377
      0.00061922	    -24.93478210	     -0.02982002	     -0.01930065	     -0.00092483	      0.70916382	     -0.00044337	     76.00046931	     -5.99998014	      3.00007018	    -80.00144570	      0.00410991	     -0.41105567	     17.54581154	      0.03239949	     -0.02000001	     31.50017171	     14.24999998	     -0.00000000	     76.00047386	     -5.99999476	      3.00007550	    -80.00145263	     17.54581155	      0.03239949	     -0.02000001	     31.50017757	     14.24999998	     -0.00000000	     -9.99995628	      0.00000435	      0.00000582	      0.07506046	     -0.01379222	     -0.01505381	      0.00055067	     -0.00300903	      0.00002731	      1.51899775	      0.08010549	      0.25926685	     -4.20530603	     -0.00023570	     -0.00122276	      0.00409307	     -0.00130300	     -0.00001902	      1.13825814	     -0.00000000	     -0.00000000	      1.53143992	      0.03606705	      0.27717919	     -4.23545845	      0.00412242	     -0.00131235	     -0.00001916	      1.15663148	      0.00000000	     -0.00000000	      0.16075217	      0.01343140	      0.01818833	      0.07133116	      0.04359471	      0.09406477	      0.09314248	      0.11564753	      0.08273537	      0.29230405	      0.12501140	      0.13702228	      0.13196626	      0.94250607	      0.35202605	      0.20014606	      0.13072837	      0.08933735	      0.03579440	      0.95585546	      0.05452992	      0.10558903	      0.31444479	      0.11564753	      0.11432347	      0.17543206	      0.13425009	      1.00000000	      0.17255480	      0.04248167	      0.05220613	      0.40525181	      0.04652903	      1.00000000	      0.07399652	      0.74412283	      0.02884015	      0.11564753	      0.03028031	      0.99857815	      0.08555707	      0.16536229	      0.12181818	      0.14441209	      0.08462532	      0.06589429	      0.09570197	      0.11564753	      0.03463441	      0.10336263	      0.05283978	      0.07133116	      0.04365303	      0.09406477	      0.09324111	      0.11564753	      0.08282509	      0.30536374	      0.12466545	      0.12879558	      0.13200198	      0.96818455	      0.35161248	      0.18078270	      0.13076686	      0.08933735	      0.03568636	      0.98200974	      0.05475171	      0.10558903	      0.31421625	      0.11564753	      0.11423681	      0.17543206	      0.13406741	      1.00000000	      0.17245381	      0.04248167	      0.05229783	      0.42152039	      0.04670820	      1.00000000	      0.07417724	      0.78007742	      0.02908095	      0.11564753	      0.03040536	      0.99857815	      0.08529661	      0.16653630	      0.12181015	      0.13088940	      0.08477230	      0.06658037	      0.09569170	      0.11564753	      0.03463441	      0.09262483	      0.05296638	      0.34192944	      0.12664385	      0.34139755	      0.12664419	      0.03649191	      0.08961353	      0.03649191	      0.08961353	      0.04030273	      0.12164418	      0.04030273	      0.12164418
